<svg xmlns="http://www.w3.org/2000/svg" xmlns:xlink="http://www.w3.org/1999/xlink" viewBox="0 0 569.41 402.15"><defs><style>.cls-1{fill:none;}.cls-2{isolation:isolate;}.cls-3{clip-path:url(#clip-path);}.cls-4{fill:#a03206;}.cls-5{fill:#a53306;}.cls-6{fill:#aa3507;}.cls-7{fill:#9b3006;}.cls-8{fill:#962e06;}.cls-9{fill:#912d06;}.cls-10{fill:#8c2b05;}.cls-11{fill:#872a05;}.cls-12{fill:#852905;}.cls-13{fill:#b63807;}.cls-14{clip-path:url(#clip-path-2);}.cls-15{clip-path:url(#clip-path-3);}.cls-16{fill:#df4509;}.cls-17{clip-path:url(#clip-path-4);}.cls-18{fill:#862a05;}.cls-19{fill:#882a05;}.cls-20{fill:#822805;}.cls-21{clip-path:url(#clip-path-5);}.cls-22{clip-path:url(#clip-path-6);}.cls-23{clip-path:url(#clip-path-7);}.cls-24{clip-path:url(#clip-path-8);}.cls-25{clip-path:url(#clip-path-9);}.cls-26{clip-path:url(#clip-path-10);}.cls-27{clip-path:url(#clip-path-11);}.cls-28{clip-path:url(#clip-path-12);}.cls-29{clip-path:url(#clip-path-13);}.cls-30{clip-path:url(#clip-path-14);}.cls-31{clip-path:url(#clip-path-15);}.cls-32{fill:#982f06;}.cls-33{clip-path:url(#clip-path-16);}.cls-34{clip-path:url(#clip-path-17);}.cls-35{clip-path:url(#clip-path-18);}</style><clipPath id="clip-path"><path class="cls-1" d="M404.89,155.23l-25.07-13.64a6.09,6.09,0,0,0,3.83.49,6.6,6.6,0,0,0,5.07-3,12.86,12.86,0,0,0,1.8-5.53q.27-3,.28-8.79l25.07,13.64c0,3.85-.1,6.77-.28,8.79a13,13,0,0,1-1.79,5.53,6.64,6.64,0,0,1-5.08,3A6.1,6.1,0,0,1,404.89,155.23Z"/></clipPath><clipPath id="clip-path-2"><path class="cls-1" d="M386.91,49.72,412,63.36c2.69,1.45,4,6,4,13.74L390.91,63.46Q390.94,51.91,386.91,49.72Z"/></clipPath><clipPath id="clip-path-3"><path class="cls-1" d="M385.08,179.17,360,165.53a20.76,20.76,0,0,1-6.28-5.21Q345,149.63,345.06,126l25.07,13.64q0,23.64,8.66,34.33A20.83,20.83,0,0,0,385.08,179.17Z"/></clipPath><clipPath id="clip-path-4"><path class="cls-1" d="M408.09,27l25.07,13.64q-8.94-4.87-23.68-2.8Q391,40.48,380.62,52.11t-10.38,31L345.17,69.51q0-19.4,10.38-31T384.4,24.24Q399.15,22.16,408.09,27Z"/></clipPath><clipPath id="clip-path-5"><path class="cls-1" d="M191.48,185.2l-25.07-13.64a6.08,6.08,0,0,0,3.81.52,7.16,7.16,0,0,0,5.52-3.65,16.42,16.42,0,0,0,1.8-8.13l25.07,13.64a16.54,16.54,0,0,1-1.79,8.13,7.18,7.18,0,0,1-5.53,3.65A6.08,6.08,0,0,1,191.48,185.2Z"/></clipPath><clipPath id="clip-path-6"><path class="cls-1" d="M171.28,208.75l-25.07-13.64q-15-8.16-15-35.22l25.08,13.64Q156.28,200.59,171.28,208.75Z"/></clipPath><clipPath id="clip-path-7"><path class="cls-1" d="M174,80.76,199.06,94.4q3.69,2,3.68,10.75L177.66,91.51Q177.68,82.77,174,80.76Z"/></clipPath><clipPath id="clip-path-8"><path class="cls-1" d="M192.7,57.4,217.77,71q-9.09-5-22.26-3.09-18.15,2.55-28.6,15.83T156.44,117L131.37,103.4q0-20,10.47-33.26t28.6-15.83Q183.61,52.45,192.7,57.4Z"/></clipPath><clipPath id="clip-path-9"><path class="cls-1" d="M561.72,329.11l-25.08-13.64a3.15,3.15,0,0,0,2,.22A30.65,30.65,0,0,0,542,315c1.07-.28,1.78-.45,2.13-.5l25.07,13.64c-.35.05-1.06.22-2.13.5a30.2,30.2,0,0,1-3.38.66A3.11,3.11,0,0,1,561.72,329.11Z"/></clipPath><clipPath id="clip-path-10"><path class="cls-1" d="M537.08,354.87,512,341.23a9.67,9.67,0,0,1-2.44-1.86q-4.62-4.92-4.59-17.22l25.08,13.64q0,12.3,4.58,17.21A9.36,9.36,0,0,0,537.08,354.87Z"/></clipPath><clipPath id="clip-path-11"><path class="cls-1" d="M452.86,235.89l25.07,13.64a5.33,5.33,0,0,1,1.73,1.53,11.74,11.74,0,0,1,1.94,7.21l-25.07-13.64a11.74,11.74,0,0,0-1.94-7.21A5.33,5.33,0,0,0,452.86,235.89Z"/></clipPath><clipPath id="clip-path-12"><path class="cls-1" d="M475.85,210.08l25.07,13.64q-5.94-3.24-14.8-2-14.07,2-19.07,18L442,226.12q5-16.06,19.08-18Q469.9,206.83,475.85,210.08Z"/></clipPath><clipPath id="clip-path-13"><path class="cls-1" d="M380,337.46,355,323.82a5.67,5.67,0,0,0,3.54.47q7.31-1,7.33-15.24l25.07,13.64q0,14.22-7.32,15.24A5.69,5.69,0,0,1,380,337.46Z"/></clipPath><clipPath id="clip-path-14"><path class="cls-1" d="M347.8,396.3l-25.08-13.64a44.52,44.52,0,0,1-5.07-3.25l25.07,13.64A43.76,43.76,0,0,0,347.8,396.3Z"/></clipPath><clipPath id="clip-path-15"><path class="cls-1" d="M353.43,372.13,328.36,358.5q11.38,5.7,22.6,4.12a15.23,15.23,0,0,0,11-6.54q3.76-5.52,3.77-14.17l25.07,13.64q0,8.64-3.77,14.16a15.18,15.18,0,0,1-11,6.55Q364.81,377.84,353.43,372.13Z"/></clipPath><clipPath id="clip-path-16"><path class="cls-1" d="M361.29,248.53l25.07,13.64a7,7,0,0,1,2.51,2.61,14.69,14.69,0,0,1,2.12,7.77l-25.07-13.64a14.69,14.69,0,0,0-2.12-7.77A7,7,0,0,0,361.29,248.53Z"/></clipPath><clipPath id="clip-path-17"><path class="cls-1" d="M357.14,363.18l-25.08-13.64a16.71,16.71,0,0,1-5.71-5.17q-6.32-8.91-6.28-25.24l25.08,13.64q0,16.34,6.27,25.24A16.75,16.75,0,0,0,357.14,363.18Z"/></clipPath><clipPath id="clip-path-18"><path class="cls-1" d="M357.73,225.72l25.08,13.64q-4.56-2.48-11.51-1.5-14.42,2-20.22,12.73t-5.84,29.34l-25.07-13.64q0-18.63,5.84-29.34t20.22-12.73Q353.19,223.25,357.73,225.72Z"/></clipPath></defs><title>Asset 2</title><g id="Layer_2" data-name="Layer 2"><g id="Layer_1-2" data-name="Layer 1"><g class="cls-2"><g class="cls-2"><g class="cls-3"><g class="cls-2"><path class="cls-4" d="M404.89,155.23l-25.07-13.64.16.08,25.07,13.64-.16-.08"/><path class="cls-5" d="M405.05,155.31,380,141.67a5.14,5.14,0,0,0,.88.33l25.08,13.63a4.27,4.27,0,0,1-.89-.32"/><path class="cls-6" d="M405.94,155.63,380.86,142a7.32,7.32,0,0,0,2.79.08,8.25,8.25,0,0,0,2.49-.71L411.21,155a8.25,8.25,0,0,1-2.49.71,7.05,7.05,0,0,1-2.78-.09"/><path class="cls-5" d="M411.21,155l-25.07-13.64a5.38,5.38,0,0,0,.91-.52l25.07,13.64a5.38,5.38,0,0,1-.91.52"/><path class="cls-4" d="M412.12,154.49l-25.07-13.64a6.65,6.65,0,0,0,.59-.46L412.71,154a5.46,5.46,0,0,1-.59.46"/><path class="cls-7" d="M412.71,154l-25.07-13.64c.16-.15.31-.3.46-.47l25.07,13.64a5.1,5.1,0,0,1-.46.47"/><path class="cls-8" d="M413.17,153.56,388.1,139.92a5,5,0,0,0,.4-.51l25.07,13.64a5,5,0,0,1-.4.51"/><path class="cls-9" d="M413.57,153.05,388.5,139.41a4,4,0,0,0,.22-.34c.11-.18.21-.36.31-.54l25.08,13.64-.31.54a4,4,0,0,1-.23.34"/><path class="cls-10" d="M414.11,152.17,389,138.53a12.67,12.67,0,0,0,.74-1.64l25.07,13.64a12.61,12.61,0,0,1-.73,1.64"/><path class="cls-11" d="M414.84,150.53l-25.07-13.64a13.27,13.27,0,0,0,.75-3.35q.27-3,.28-8.79l25.07,13.64c0,3.85-.1,6.77-.28,8.79a13.27,13.27,0,0,1-.75,3.35"/></g></g></g><polygon class="cls-12" points="415.87 138.39 390.8 124.75 390.82 111.12 415.9 124.76 415.87 138.39"/><polygon class="cls-13" points="415.9 124.76 390.82 111.12 421.8 106.76 446.87 120.4 415.9 124.76"/><polygon class="cls-12" points="415.95 95.16 390.88 81.52 390.91 63.46 415.99 77.1 415.95 95.16"/><polygon class="cls-13" points="401.18 97.24 376.11 83.6 390.88 81.52 415.95 95.16 401.18 97.24"/><g class="cls-2"><g class="cls-14"><g class="cls-2"><path class="cls-11" d="M416,77.1,390.91,63.46q0-11.55-4-13.74L412,63.36c2.69,1.45,4,6,4,13.74"/></g></g></g><g class="cls-2"><g class="cls-15"><g class="cls-2"><path class="cls-11" d="M385.08,179.17,360,165.53a20.76,20.76,0,0,1-6.28-5.21Q345,149.63,345.06,126l25.07,13.64q0,23.64,8.66,34.33a20.83,20.83,0,0,0,6.29,5.21"/></g></g></g><polygon class="cls-12" points="370.13 139.63 345.06 125.99 345.17 69.51 370.24 83.15 370.13 139.63"/><path class="cls-16" d="M446.54,107.58l-45.21,6.35-.05,27.28q0,7.31,1.4,11.23c.94,2.63,3,3.72,6,3.28a6.64,6.64,0,0,0,5.08-3,13,13,0,0,0,1.79-5.53c.18-2,.28-4.94.28-8.79l0-13.63,31-4.36v8.07q0,24.59-8.88,37.46t-30.37,15.88q-20.12,2.83-28.82-7.85t-8.66-34.33l.11-56.48q0-19.4,10.38-31t28.86-14.24Q447,32.61,447,72.37l0,10.18Q446.93,97.93,446.54,107.58ZM401.18,97.24,416,95.16l0-18.06q0-15.18-6.92-14.2-7.83,1.11-7.85,16.28l0,18.06"/><g class="cls-2"><g class="cls-17"><g class="cls-2"><path class="cls-11" d="M370.24,83.15,345.17,69.51a54.09,54.09,0,0,1,3-18.66l25.07,13.64a54.09,54.09,0,0,0-3,18.66"/><path class="cls-10" d="M373.27,64.49,348.2,50.85a39.23,39.23,0,0,1,2.33-5.19L375.6,59.3a40.57,40.57,0,0,0-2.33,5.19"/><path class="cls-9" d="M375.6,59.3,350.53,45.66a38.86,38.86,0,0,1,2.34-3.81l25.07,13.64a38.86,38.86,0,0,0-2.34,3.81"/><path class="cls-8" d="M377.94,55.49,352.87,41.85a38.85,38.85,0,0,1,2.59-3.28l25.08,13.64a37.42,37.42,0,0,0-2.6,3.28"/><path class="cls-7" d="M380.54,52.21,355.46,38.57l.09-.1a39.68,39.68,0,0,1,3.1-3.12L383.72,49a39.68,39.68,0,0,0-3.1,3.12l-.08.1"/><path class="cls-4" d="M383.72,49,358.65,35.35a40.57,40.57,0,0,1,4-3.14l25.07,13.64a40.57,40.57,0,0,0-4,3.14"/><path class="cls-5" d="M387.69,45.85,362.62,32.21a42.09,42.09,0,0,1,6.05-3.47l25.07,13.64a42.09,42.09,0,0,0-6.05,3.47"/><path class="cls-6" d="M393.74,42.38,368.67,28.74a54.45,54.45,0,0,1,15.73-4.5q10.23-1.44,17.67.46l25.08,13.64q-7.44-1.91-17.67-.47a54.84,54.84,0,0,0-15.74,4.51"/><path class="cls-5" d="M427.15,38.34,402.07,24.7a26.89,26.89,0,0,1,5.11,1.86L432.25,40.2a26.54,26.54,0,0,0-5.1-1.86"/><path class="cls-4" d="M432.25,40.2,407.18,26.56c.31.15.61.31.91.47l25.07,13.64c-.3-.16-.6-.32-.91-.47"/></g></g></g></g><g class="cls-2"><polygon class="cls-12" points="327.68 191.51 302.61 177.88 302.87 37.23 327.94 50.87 327.68 191.51"/><polygon class="cls-13" points="327.94 50.87 302.87 37.23 334.02 32.85 359.1 46.49 327.94 50.87"/><polygon class="cls-16" points="327.68 191.51 327.94 50.87 359.1 46.49 358.83 187.14 327.68 191.51"/></g><g class="cls-2"><polygon class="cls-13" points="328 18.02 302.93 4.38 334.08 0 359.16 13.64 328 18.02"/><polygon class="cls-12" points="327.96 41.46 302.89 27.82 302.93 4.38 328 18.02 327.96 41.46"/><polygon class="cls-16" points="328 18.02 359.16 13.64 359.11 37.08 327.96 41.46 328 18.02"/></g><g class="cls-2"><polygon class="cls-18" points="280.24 151.5 255.17 137.86 256.45 114.63 281.53 128.27 280.24 151.5"/><polygon class="cls-19" points="281.53 128.27 256.45 114.63 263.71 42.74 288.78 56.38 281.53 128.27"/><polygon class="cls-13" points="288.78 56.38 263.71 42.74 294.86 38.36 319.93 52 288.78 56.38"/><polygon class="cls-13" points="241.79 62.98 216.72 49.34 247.86 44.96 272.94 58.6 241.79 62.98"/><polygon class="cls-20" points="262.36 200.69 237.28 187.06 216.72 49.34 241.79 62.98 262.36 200.69"/><polygon class="cls-16" points="319.93 52 298.49 195.62 262.36 200.69 241.79 62.98 272.94 58.6 279.22 128.79 280.24 151.5 281.53 128.27 288.78 56.38 319.93 52"/></g><g class="cls-2"><g class="cls-2"><g class="cls-21"><g class="cls-2"><path class="cls-4" d="M191.48,185.2l-25.07-13.64.16.09,25.08,13.63-.17-.08"/><path class="cls-5" d="M191.65,185.28l-25.08-13.63a4.65,4.65,0,0,0,.93.33l25.07,13.64a4,4,0,0,1-.92-.34"/><path class="cls-6" d="M192.57,185.62,167.5,172a6.94,6.94,0,0,0,2.72.1,8,8,0,0,0,2.38-.69L197.68,185a8.11,8.11,0,0,1-2.39.69,7,7,0,0,1-2.72-.1"/><path class="cls-5" d="M197.68,185,172.6,171.39a6.24,6.24,0,0,0,1-.56l25.08,13.64a7.3,7.3,0,0,1-1,.56"/><path class="cls-4" d="M198.66,184.47l-25.08-13.64a7.33,7.33,0,0,0,.68-.54l25.07,13.64c-.21.19-.44.37-.67.54"/><path class="cls-7" d="M199.33,183.93l-25.07-13.64a5.92,5.92,0,0,0,.56-.56l25.07,13.64a5.92,5.92,0,0,1-.56.56"/><path class="cls-8" d="M199.89,183.37l-25.07-13.64a8.27,8.27,0,0,0,.51-.66l25.08,13.64c-.17.23-.34.45-.52.66"/><path class="cls-9" d="M200.41,182.71l-25.08-13.64a7,7,0,0,0,.41-.64l.13-.23,25.07,13.64-.12.23c-.13.22-.27.44-.41.64"/><path class="cls-10" d="M200.94,181.84,175.87,168.2a11.5,11.5,0,0,0,.67-1.51l25.08,13.64a12.16,12.16,0,0,1-.68,1.51"/><path class="cls-11" d="M201.62,180.33l-25.08-13.64a18.72,18.72,0,0,0,1-6.39l25.07,13.64a19,19,0,0,1-1,6.39"/></g></g></g><polygon class="cls-12" points="202.61 173.94 177.54 160.3 177.66 91.51 202.74 105.15 202.61 173.94"/><g class="cls-2"><g class="cls-22"><g class="cls-2"><path class="cls-11" d="M171.28,208.75l-25.07-13.64q-15-8.16-15-35.22l25.08,13.64q-.06,27.06,14.94,35.22"/></g></g></g><g class="cls-2"><g class="cls-23"><g class="cls-2"><path class="cls-11" d="M202.74,105.15,177.66,91.51q0-8.74-3.67-10.75L199.06,94.4q3.69,2,3.68,10.75"/></g></g></g><polygon class="cls-12" points="156.34 173.53 131.26 159.89 131.37 103.39 156.44 117.03 156.34 173.53"/><g class="cls-2"><g class="cls-24"><g class="cls-2"><path class="cls-11" d="M156.44,117,131.37,103.4a59.59,59.59,0,0,1,3.39-20.52l25.08,13.63a59.67,59.67,0,0,0-3.4,20.52"/><path class="cls-10" d="M159.84,96.51,134.76,82.88a48.32,48.32,0,0,1,2.75-6.12l25.07,13.63a48.12,48.12,0,0,0-2.74,6.12"/><path class="cls-9" d="M162.58,90.39,137.51,76.76a45.47,45.47,0,0,1,2.85-4.62l25.07,13.64a46.46,46.46,0,0,0-2.85,4.61"/><path class="cls-8" d="M165.43,85.78,140.36,72.14c.47-.68,1-1.34,1.48-2s1.06-1.3,1.61-1.93l25.07,13.64c-.55.62-1.08,1.27-1.61,1.93s-1,1.32-1.48,2"/><path class="cls-7" d="M168.52,81.85,143.45,68.21a41.35,41.35,0,0,1,3.36-3.39l25.07,13.64a43,43,0,0,0-3.36,3.39"/><path class="cls-4" d="M171.88,78.46,146.81,64.82a39.4,39.4,0,0,1,4-3.18L175.9,75.28a38.45,38.45,0,0,0-4,3.18"/><path class="cls-5" d="M175.9,75.28,150.82,61.64a41,41,0,0,1,5.8-3.33L181.7,72a39.86,39.86,0,0,0-5.8,3.33"/><path class="cls-6" d="M181.7,72,156.62,58.31a47.79,47.79,0,0,1,13.82-4,40.38,40.38,0,0,1,15.82.57l25.07,13.64A40.38,40.38,0,0,0,195.51,68a47.72,47.72,0,0,0-13.81,4"/><path class="cls-5" d="M211.33,68.52,186.26,54.88a27.71,27.71,0,0,1,5.45,2l25.07,13.64a27.48,27.48,0,0,0-5.45-2"/><path class="cls-4" d="M216.78,70.53,191.71,56.89q.49.24,1,.51L217.77,71q-.48-.27-1-.51"/></g></g></g><path class="cls-16" d="M224.06,75.75q10.38,10.35,10.36,30.33l-.11,56.49q-.08,43.6-39.07,49.09t-38.9-38.13l.1-56.5q0-20,10.47-33.25T195.51,68Q213.66,65.38,224.06,75.75Zm-21.45,98.19.13-68.79q0-12.29-7.28-11.27t-7.32,13.32L188,176q0,5,1.77,7.63t5.51,2.1a7.18,7.18,0,0,0,5.53-3.65,16.54,16.54,0,0,0,1.79-8.13"/></g><g class="cls-2"><polygon class="cls-12" points="116.39 221.21 91.32 207.57 91.54 88.64 116.61 102.28 116.39 221.21"/><polygon class="cls-19" points="84.64 161.32 59.57 147.68 72.58 45.21 97.65 58.84 84.64 161.32"/><polygon class="cls-13" points="97.65 58.84 72.58 45.21 119.57 38.6 144.65 52.24 97.65 58.84"/><polygon class="cls-20" points="71.36 227.54 46.28 213.9 27.81 97.59 52.88 111.23 71.36 227.54"/><polygon class="cls-13" points="25.38 69 0.31 55.36 46.94 48.81 72.02 62.45 25.38 69"/><polygon class="cls-12" points="25.07 234.04 0 220.4 0.31 55.36 25.38 69 25.07 234.04"/><polygon class="cls-16" points="144.65 52.24 144.34 217.28 116.39 221.21 116.61 102.28 98.77 223.69 71.36 227.54 52.88 111.23 52.66 230.17 25.07 234.04 25.38 69 72.02 62.45 84.64 161.32 97.65 58.84 144.65 52.24"/></g><g class="cls-2"><g class="cls-2"><g class="cls-25"><g class="cls-2"><path class="cls-4" d="M561.72,329.11l-25.08-13.64.07,0,25.08,13.64-.07,0"/><path class="cls-5" d="M561.79,329.15l-25.08-13.64a2.48,2.48,0,0,0,.41.15l25.07,13.64a2.37,2.37,0,0,1-.4-.15"/><path class="cls-6" d="M562.19,329.3l-25.07-13.64a3.9,3.9,0,0,0,1.5,0A30.65,30.65,0,0,0,542,315c1.07-.28,1.78-.45,2.13-.5l25.07,13.64c-.35.05-1.06.22-2.13.5a30.2,30.2,0,0,1-3.38.66,3.9,3.9,0,0,1-1.5,0"/></g></g></g><g class="cls-2"><g class="cls-26"><g class="cls-2"><path class="cls-11" d="M537.08,354.87,512,341.23a9.67,9.67,0,0,1-2.44-1.86q-4.62-4.92-4.59-17.22l25.08,13.64q0,12.3,4.58,17.21a9.36,9.36,0,0,0,2.45,1.87"/></g></g></g><polygon class="cls-13" points="560.51 218.18 535.44 204.54 544.34 203.29 569.41 216.93 560.51 218.18"/><polygon class="cls-12" points="530.04 335.79 504.97 322.15 505.14 234.34 530.21 247.98 530.04 335.79"/><polygon class="cls-12" points="521.49 249.21 496.41 235.57 496.46 210.02 521.53 223.66 521.49 249.21"/><polygon class="cls-13" points="521.53 223.66 496.46 210.02 505.18 208.8 530.26 222.44 521.53 223.66"/><path class="cls-16" d="M560.57,188.4l-.06,29.78,8.9-1.25,0,25.55-8.9,1.25-.14,79a18.91,18.91,0,0,0,.52,5.31c.35,1.1,1.31,1.54,2.85,1.32a30.2,30.2,0,0,0,3.38-.66c1.07-.28,1.78-.45,2.13-.5l0,23.06q-2.67,1.14-7.74,2.72a62.72,62.72,0,0,1-9.89,2.25q-12.27,1.73-16.9-3.2t-4.58-17.21l.16-87.81-8.73,1.23,0-25.55,8.73-1.22,0-29.79Z"/><polygon class="cls-12" points="530.26 222.44 505.18 208.8 505.24 179.01 530.31 192.65 530.26 222.44"/><polygon class="cls-13" points="530.31 192.65 505.24 179.01 535.49 174.76 560.57 188.4 530.31 192.65"/></g><g class="cls-2"><polygon class="cls-12" points="481.4 364.52 456.33 350.88 456.53 244.63 481.6 258.27 481.4 364.52"/><g class="cls-2"><g class="cls-27"><g class="cls-2"><path class="cls-11" d="M481.6,258.27l-25.07-13.64a11.74,11.74,0,0,0-1.94-7.21,5.33,5.33,0,0,0-1.73-1.53l25.07,13.64a5.33,5.33,0,0,1,1.73,1.53,11.74,11.74,0,0,1,1.94,7.21"/></g></g></g><g class="cls-2"><g class="cls-28"><g class="cls-2"><path class="cls-11" d="M467.05,239.76,442,226.12c.21-.66.43-1.31.66-1.94l25.07,13.64c-.23.63-.45,1.28-.65,1.94"/><path class="cls-10" d="M467.7,237.82l-25.07-13.64a33.27,33.27,0,0,1,2-4.38l25.07,13.64a33.27,33.27,0,0,0-2,4.38"/><path class="cls-9" d="M469.66,233.44,444.59,219.8a26.48,26.48,0,0,1,1.68-2.75l25.07,13.64a26.48,26.48,0,0,0-1.68,2.75"/><path class="cls-8" d="M471.34,230.69l-25.07-13.64A24,24,0,0,1,447.9,215L473,228.62a26.08,26.08,0,0,0-1.63,2.07"/><path class="cls-7" d="M473,228.62,447.9,215a22,22,0,0,1,1.73-1.75l25.07,13.64a20.44,20.44,0,0,0-1.73,1.75"/><path class="cls-4" d="M474.7,226.87l-25.07-13.64a18.3,18.3,0,0,1,2-1.6l25.07,13.64a19.27,19.27,0,0,0-2,1.6"/><path class="cls-5" d="M476.73,225.27l-25.07-13.64A20,20,0,0,1,454.5,210l25.07,13.64a19.56,19.56,0,0,0-2.84,1.64"/><path class="cls-6" d="M479.57,223.63,454.5,210a22.76,22.76,0,0,1,6.55-1.91,27.35,27.35,0,0,1,10.64.37l25.08,13.64a27.21,27.21,0,0,0-10.65-.37,22.86,22.86,0,0,0-6.55,1.91"/><path class="cls-5" d="M496.77,222.09l-25.08-13.64a18.56,18.56,0,0,1,3.53,1.3l25.07,13.64a18.46,18.46,0,0,0-3.52-1.3"/><path class="cls-4" d="M500.29,223.39l-25.07-13.64.63.33,25.07,13.64-.63-.33"/></g></g></g><polygon class="cls-12" points="434.77 371.08 409.7 357.44 410 191.44 435.08 205.07 434.77 371.08"/><polygon class="cls-13" points="435.08 205.07 410 191.44 442.05 186.93 467.12 200.57 435.08 205.07"/><path class="cls-16" d="M467.12,200.57l-.07,39.19q5-16.06,19.07-18Q499.29,219.88,506,228t6.72,23.83l-.2,108.36-31.15,4.38.19-106.25a11.74,11.74,0,0,0-1.94-7.21A5.6,5.6,0,0,0,474,249a6.84,6.84,0,0,0-5.08,3.7,14.61,14.61,0,0,0-1.88,7.46l-.2,106.44-32,4.51.31-166Z"/></g><g class="cls-2"><polygon class="cls-12" points="390.84 355.55 365.77 341.91 365.78 334.22 390.85 347.86 390.84 355.55"/><g class="cls-2"><g class="cls-29"><g class="cls-2"><path class="cls-4" d="M380,337.46,355,323.82l.15.08,25.07,13.64-.15-.08"/><path class="cls-5" d="M380.18,337.54,355.11,323.9a4.41,4.41,0,0,0,.84.31L381,337.85a5,5,0,0,1-.84-.31"/><path class="cls-6" d="M381,337.85,356,324.21a6.48,6.48,0,0,0,2.55.08,6.86,6.86,0,0,0,2-.57l25.07,13.64a6.89,6.89,0,0,1-1.95.57,6.54,6.54,0,0,1-2.56-.08"/><path class="cls-5" d="M385.53,337.36l-25.07-13.64a6.77,6.77,0,0,0,.9-.52l25.07,13.64a5.7,5.7,0,0,1-.9.52"/><path class="cls-4" d="M386.43,336.84,361.36,323.2a8,8,0,0,0,.67-.52l25.07,13.64a6.67,6.67,0,0,1-.67.52"/><path class="cls-7" d="M387.1,336.32,362,322.68a8.11,8.11,0,0,0,.58-.59l25.07,13.64a8.11,8.11,0,0,1-.58.59"/><path class="cls-8" d="M387.68,335.73l-25.07-13.64a6.68,6.68,0,0,0,.55-.71L388.23,335a7.87,7.87,0,0,1-.55.71"/><path class="cls-9" d="M388.23,335l-25.07-13.64a7.32,7.32,0,0,0,.6-1L388.84,334a8.57,8.57,0,0,1-.61,1"/><path class="cls-10" d="M388.84,334,363.76,320.4a12.59,12.59,0,0,0,.72-1.61l25.07,13.64a12.58,12.58,0,0,1-.71,1.61"/><path class="cls-11" d="M389.55,332.43l-25.07-13.64a29.33,29.33,0,0,0,1.35-9.74l25.07,13.64a29.33,29.33,0,0,1-1.35,9.74"/></g></g></g><g class="cls-2"><g class="cls-30"><g class="cls-2"><path class="cls-11" d="M347.8,396.3l-25.08-13.64a44.52,44.52,0,0,1-5.07-3.25l25.07,13.64a43.76,43.76,0,0,0,5.08,3.25"/></g></g></g><g class="cls-2"><g class="cls-31"><g class="cls-2"><path class="cls-4" d="M353.43,372.13,328.36,358.5l.32.15,25.07,13.64-.32-.16"/><path class="cls-5" d="M353.75,372.29l-25.07-13.64a43.81,43.81,0,0,0,8.31,3.13l25.07,13.64a43.81,43.81,0,0,1-8.31-3.13"/><path class="cls-6" d="M362.06,375.42,337,361.78a35.56,35.56,0,0,0,14,.84,17.83,17.83,0,0,0,5.16-1.48l25.07,13.63a17.52,17.52,0,0,1-5.16,1.49,35.57,35.57,0,0,1-14-.84"/><path class="cls-5" d="M381.19,374.77l-25.07-13.63a14.4,14.4,0,0,0,2.09-1.21l25.07,13.64a13.48,13.48,0,0,1-2.09,1.2"/><path class="cls-4" d="M383.28,373.57l-25.07-13.64a13.69,13.69,0,0,0,1.42-1.12l25.07,13.64a12.7,12.7,0,0,1-1.42,1.12"/><path class="cls-7" d="M384.7,372.45l-25.07-13.64a14.48,14.48,0,0,0,1.17-1.18l25.07,13.64a14.48,14.48,0,0,1-1.17,1.18"/><path class="cls-8" d="M385.87,371.27,360.8,357.63c.37-.43.73-.88,1.07-1.36l25.07,13.64a14.23,14.23,0,0,1-1.07,1.36"/><path class="cls-9" d="M386.94,369.91l-25.07-13.64c0-.07.09-.13.13-.19.36-.54.7-1.09,1-1.67l25.07,13.64a16.31,16.31,0,0,1-1,1.66l-.13.2"/><path class="cls-10" d="M388.08,368.05,363,354.41a20.51,20.51,0,0,0,1.17-2.61l25.07,13.64a19.2,19.2,0,0,1-1.17,2.61"/><path class="cls-11" d="M389.25,365.44,364.18,351.8a28.85,28.85,0,0,0,1.59-9.89l25.07,13.64a28.62,28.62,0,0,1-1.59,9.89"/></g></g></g><polygon class="cls-32" points="342.72 393.05 317.65 379.41 328.36 358.5 353.43 372.13 342.72 393.05"/><polygon class="cls-12" points="390.9 322.69 365.83 309.05 365.92 258.91 390.99 272.55 390.9 322.69"/><g class="cls-2"><g class="cls-33"><g class="cls-2"><path class="cls-11" d="M391,272.55l-25.07-13.64a14.69,14.69,0,0,0-2.12-7.77,7,7,0,0,0-2.51-2.61l25.07,13.64a7,7,0,0,1,2.51,2.61,14.69,14.69,0,0,1,2.12,7.77"/></g></g></g><g class="cls-2"><g class="cls-34"><g class="cls-2"><path class="cls-11" d="M357.14,363.18l-25.08-13.64a16.71,16.71,0,0,1-5.71-5.17q-6.32-8.91-6.28-25.24l25.08,13.64q0,16.34,6.27,25.24a16.75,16.75,0,0,0,5.72,5.17"/></g></g></g><polygon class="cls-12" points="391.03 252.37 365.96 238.74 365.99 222.97 391.06 236.61 391.03 252.37"/><polygon class="cls-13" points="391.06 236.61 365.99 222.97 397.85 218.5 422.93 232.13 391.06 236.61"/><polygon class="cls-12" points="345.15 332.77 320.07 319.13 320.17 266.3 345.24 279.93 345.15 332.77"/><g class="cls-2"><g class="cls-35"><g class="cls-2"><path class="cls-11" d="M345.24,279.93l-25.07-13.64q0-14.62,3.61-24.36l25.07,13.64q-3.57,9.74-3.61,24.36"/><path class="cls-10" d="M348.85,255.57l-25.07-13.64A38.56,38.56,0,0,1,326,237L351,250.67a36.65,36.65,0,0,0-2.19,4.9"/><path class="cls-9" d="M351,250.67,326,237,326,237a23.48,23.48,0,0,1,1.46-2.37l25.07,13.64a25.45,25.45,0,0,0-1.46,2.37l0,.08"/><path class="cls-8" d="M352.54,248.22l-25.07-13.64c.49-.7,1-1.36,1.57-2l25.08,13.64a22,22,0,0,0-1.58,2"/><path class="cls-7" d="M354.12,246.22,329,232.58a23.65,23.65,0,0,1,1.8-1.81l25.07,13.64a21.84,21.84,0,0,0-1.79,1.81"/><path class="cls-4" d="M355.91,244.41l-25.07-13.64a22.06,22.06,0,0,1,2.27-1.79l25.08,13.64a22.19,22.19,0,0,0-2.28,1.79"/><path class="cls-5" d="M358.19,242.62,333.11,229a24.49,24.49,0,0,1,3.54-2l25.08,13.64a23.46,23.46,0,0,0-3.54,2"/><path class="cls-6" d="M361.73,240.59,336.65,227a33.27,33.27,0,0,1,9.58-2.73,21.64,21.64,0,0,1,8.36.27l25.07,13.64a21.64,21.64,0,0,0-8.36-.27,32.89,32.89,0,0,0-9.57,2.73"/><path class="cls-5" d="M379.66,238.13l-25.07-13.64a14.11,14.11,0,0,1,2.67,1l25.07,13.64a14.11,14.11,0,0,0-2.67-1"/><path class="cls-4" d="M382.33,239.11l-25.07-13.64c.16.08.32.16.47.25l25.08,13.64-.48-.25"/></g></g></g><path class="cls-16" d="M391.06,236.61l31.87-4.48L422.71,349q0,23.63-10.21,35.43t-32.42,14.93q-13.89,1.95-21.8.66a35.92,35.92,0,0,1-15.56-6.93l10.71-20.92q11.38,5.7,22.6,4.13a15.18,15.18,0,0,0,11-6.55q3.76-5.52,3.77-14.16v-7.69q-3.77,14.94-19.78,17.19-13.35,1.88-19.65-7t-6.27-25.24l.09-52.84q0-18.63,5.84-29.34t20.22-12.73q8.37-1.17,13.26,2.65c3.25,2.55,5.42,6.51,6.47,11.86Zm-.16,86.08.09-50.14a14.69,14.69,0,0,0-2.12-7.77c-1.41-2.36-3.2-3.4-5.33-3.1a6.5,6.5,0,0,0-5.52,3.95,23.26,23.26,0,0,0-1.45,8.94l-.09,50.15a28.84,28.84,0,0,0,1.41,10.08c.94,2.49,2.83,3.53,5.69,3.13q7.29-1,7.32-15.24"/></g><g class="cls-2"><polygon class="cls-12" points="301.62 389.79 276.55 376.15 276.81 235.51 301.88 249.15 301.62 389.79"/><polygon class="cls-13" points="301.88 249.15 276.81 235.51 307.96 231.13 333.03 244.77 301.88 249.15"/><polygon class="cls-16" points="301.62 389.79 301.88 249.15 333.03 244.77 332.77 385.41 301.62 389.79"/></g><g class="cls-2"><polygon class="cls-13" points="301.94 216.3 276.87 202.66 308.02 198.28 333.09 211.92 301.94 216.3"/><polygon class="cls-12" points="301.9 239.74 276.82 226.1 276.87 202.66 301.94 216.3 301.9 239.74"/><polygon class="cls-16" points="301.94 216.3 333.09 211.92 333.05 235.36 301.9 239.74 301.94 216.3"/></g><g class="cls-2"><polygon class="cls-20" points="258.9 395.79 233.83 382.15 218.67 301.69 243.75 315.33 258.9 395.79"/><polygon class="cls-12" points="259.41 309.67 234.34 296.03 234.49 217.06 259.56 230.7 259.41 309.67"/><polygon class="cls-13" points="259.56 230.7 234.49 217.06 264.04 212.91 289.11 226.55 259.56 230.7"/><polygon class="cls-13" points="213.99 237.11 188.91 223.47 220.43 219.04 245.5 232.68 213.99 237.11"/><polygon class="cls-12" points="213.68 402.15 188.61 388.51 188.91 223.47 213.99 237.11 213.68 402.15"/><polygon class="cls-16" points="289.11 226.55 288.8 391.59 258.9 395.79 243.75 315.33 243.59 397.94 213.68 402.15 213.99 237.11 245.5 232.68 259.41 309.67 259.56 230.7 289.11 226.55"/></g></g></g></svg>